<mxfile host="Electron" modified="2024-03-23T18:31:54.456Z" agent="Mozilla/5.0 (Windows NT 10.0; Win64; x64) AppleWebKit/537.36 (KHTML, like Gecko) draw.io/24.0.4 Chrome/120.0.6099.109 Electron/28.1.0 Safari/537.36" etag="RMnd-W28QCVWrzTbQMax" version="24.0.4" type="device">
  <diagram name="Pagina-1" id="m0yx0wUjTuoQdoPXXZJ7">
    <mxGraphModel dx="1009" dy="747" grid="1" gridSize="10" guides="1" tooltips="1" connect="1" arrows="1" fold="1" page="1" pageScale="1" pageWidth="827" pageHeight="1169" math="0" shadow="0">
      <root>
        <mxCell id="0" />
        <mxCell id="1" parent="0" />
        <mxCell id="RTQ0NxdWoZ7tqCXhcupJ-24" style="edgeStyle=orthogonalEdgeStyle;rounded=0;orthogonalLoop=1;jettySize=auto;html=1;entryX=0;entryY=0.5;entryDx=0;entryDy=0;" parent="1" source="RTQ0NxdWoZ7tqCXhcupJ-1" target="RTQ0NxdWoZ7tqCXhcupJ-21" edge="1">
          <mxGeometry relative="1" as="geometry" />
        </mxCell>
        <mxCell id="RTQ0NxdWoZ7tqCXhcupJ-25" style="edgeStyle=orthogonalEdgeStyle;rounded=0;orthogonalLoop=1;jettySize=auto;html=1;entryX=0;entryY=0.5;entryDx=0;entryDy=0;" parent="1" source="RTQ0NxdWoZ7tqCXhcupJ-1" target="RTQ0NxdWoZ7tqCXhcupJ-22" edge="1">
          <mxGeometry relative="1" as="geometry" />
        </mxCell>
        <mxCell id="RTQ0NxdWoZ7tqCXhcupJ-26" style="edgeStyle=orthogonalEdgeStyle;rounded=0;orthogonalLoop=1;jettySize=auto;html=1;entryX=0;entryY=0.5;entryDx=0;entryDy=0;" parent="1" source="RTQ0NxdWoZ7tqCXhcupJ-1" target="RTQ0NxdWoZ7tqCXhcupJ-23" edge="1">
          <mxGeometry relative="1" as="geometry" />
        </mxCell>
        <mxCell id="RTQ0NxdWoZ7tqCXhcupJ-44" style="edgeStyle=orthogonalEdgeStyle;rounded=0;orthogonalLoop=1;jettySize=auto;html=1;entryX=0.5;entryY=1;entryDx=0;entryDy=0;endArrow=doubleBlock;endFill=1;" parent="1" source="RTQ0NxdWoZ7tqCXhcupJ-1" target="RTQ0NxdWoZ7tqCXhcupJ-4" edge="1">
          <mxGeometry relative="1" as="geometry" />
        </mxCell>
        <mxCell id="RTQ0NxdWoZ7tqCXhcupJ-1" value="Partecipante" style="rounded=0;whiteSpace=wrap;html=1;" parent="1" vertex="1">
          <mxGeometry x="500" y="410" width="120" height="60" as="geometry" />
        </mxCell>
        <mxCell id="RTQ0NxdWoZ7tqCXhcupJ-45" style="edgeStyle=orthogonalEdgeStyle;rounded=0;orthogonalLoop=1;jettySize=auto;html=1;entryX=0.5;entryY=1;entryDx=0;entryDy=0;" parent="1" source="RTQ0NxdWoZ7tqCXhcupJ-2" target="RTQ0NxdWoZ7tqCXhcupJ-5" edge="1">
          <mxGeometry relative="1" as="geometry" />
        </mxCell>
        <mxCell id="p1zoaM96KkhPc-a-cA9U-12" style="edgeStyle=orthogonalEdgeStyle;rounded=0;orthogonalLoop=1;jettySize=auto;html=1;exitX=0.25;exitY=1;exitDx=0;exitDy=0;entryX=0;entryY=0.5;entryDx=0;entryDy=0;" edge="1" parent="1" source="RTQ0NxdWoZ7tqCXhcupJ-2" target="RTQ0NxdWoZ7tqCXhcupJ-30">
          <mxGeometry relative="1" as="geometry" />
        </mxCell>
        <mxCell id="p1zoaM96KkhPc-a-cA9U-13" style="edgeStyle=orthogonalEdgeStyle;rounded=0;orthogonalLoop=1;jettySize=auto;html=1;exitX=0.25;exitY=1;exitDx=0;exitDy=0;entryX=0;entryY=0.5;entryDx=0;entryDy=0;" edge="1" parent="1" source="RTQ0NxdWoZ7tqCXhcupJ-2" target="RTQ0NxdWoZ7tqCXhcupJ-32">
          <mxGeometry relative="1" as="geometry" />
        </mxCell>
        <mxCell id="p1zoaM96KkhPc-a-cA9U-14" style="edgeStyle=orthogonalEdgeStyle;rounded=0;orthogonalLoop=1;jettySize=auto;html=1;exitX=0.25;exitY=1;exitDx=0;exitDy=0;entryX=0;entryY=0.5;entryDx=0;entryDy=0;" edge="1" parent="1" source="RTQ0NxdWoZ7tqCXhcupJ-2" target="RTQ0NxdWoZ7tqCXhcupJ-34">
          <mxGeometry relative="1" as="geometry" />
        </mxCell>
        <mxCell id="p1zoaM96KkhPc-a-cA9U-15" style="edgeStyle=orthogonalEdgeStyle;rounded=0;orthogonalLoop=1;jettySize=auto;html=1;exitX=0.25;exitY=1;exitDx=0;exitDy=0;entryX=0;entryY=0.5;entryDx=0;entryDy=0;" edge="1" parent="1" source="RTQ0NxdWoZ7tqCXhcupJ-2" target="RTQ0NxdWoZ7tqCXhcupJ-36">
          <mxGeometry relative="1" as="geometry" />
        </mxCell>
        <mxCell id="RTQ0NxdWoZ7tqCXhcupJ-2" value="Risorsa" style="rounded=0;whiteSpace=wrap;html=1;" parent="1" vertex="1">
          <mxGeometry x="60" y="490" width="120" height="60" as="geometry" />
        </mxCell>
        <mxCell id="RTQ0NxdWoZ7tqCXhcupJ-46" style="edgeStyle=orthogonalEdgeStyle;rounded=0;orthogonalLoop=1;jettySize=auto;html=1;entryX=0.5;entryY=0;entryDx=0;entryDy=0;endArrow=doubleBlock;endFill=1;" parent="1" source="RTQ0NxdWoZ7tqCXhcupJ-3" target="RTQ0NxdWoZ7tqCXhcupJ-5" edge="1">
          <mxGeometry relative="1" as="geometry">
            <Array as="points">
              <mxPoint x="70" y="240" />
            </Array>
          </mxGeometry>
        </mxCell>
        <mxCell id="p1zoaM96KkhPc-a-cA9U-3" style="edgeStyle=orthogonalEdgeStyle;rounded=0;orthogonalLoop=1;jettySize=auto;html=1;exitX=1;exitY=0.5;exitDx=0;exitDy=0;entryX=0;entryY=0.5;entryDx=0;entryDy=0;endArrow=doubleBlock;endFill=1;" edge="1" parent="1" source="RTQ0NxdWoZ7tqCXhcupJ-3" target="RTQ0NxdWoZ7tqCXhcupJ-4">
          <mxGeometry relative="1" as="geometry" />
        </mxCell>
        <mxCell id="p1zoaM96KkhPc-a-cA9U-6" style="edgeStyle=orthogonalEdgeStyle;rounded=0;orthogonalLoop=1;jettySize=auto;html=1;exitX=0.25;exitY=1;exitDx=0;exitDy=0;entryX=0;entryY=0.5;entryDx=0;entryDy=0;" edge="1" parent="1" source="RTQ0NxdWoZ7tqCXhcupJ-3" target="RTQ0NxdWoZ7tqCXhcupJ-6">
          <mxGeometry relative="1" as="geometry" />
        </mxCell>
        <mxCell id="p1zoaM96KkhPc-a-cA9U-7" style="edgeStyle=orthogonalEdgeStyle;rounded=0;orthogonalLoop=1;jettySize=auto;html=1;exitX=0.25;exitY=1;exitDx=0;exitDy=0;entryX=0;entryY=0.5;entryDx=0;entryDy=0;" edge="1" parent="1" source="RTQ0NxdWoZ7tqCXhcupJ-3" target="RTQ0NxdWoZ7tqCXhcupJ-7">
          <mxGeometry relative="1" as="geometry" />
        </mxCell>
        <mxCell id="p1zoaM96KkhPc-a-cA9U-8" style="edgeStyle=orthogonalEdgeStyle;rounded=0;orthogonalLoop=1;jettySize=auto;html=1;exitX=0.25;exitY=1;exitDx=0;exitDy=0;entryX=0;entryY=0.5;entryDx=0;entryDy=0;" edge="1" parent="1" source="RTQ0NxdWoZ7tqCXhcupJ-3" target="RTQ0NxdWoZ7tqCXhcupJ-8">
          <mxGeometry relative="1" as="geometry" />
        </mxCell>
        <mxCell id="p1zoaM96KkhPc-a-cA9U-9" style="edgeStyle=orthogonalEdgeStyle;rounded=0;orthogonalLoop=1;jettySize=auto;html=1;exitX=0.25;exitY=1;exitDx=0;exitDy=0;entryX=0;entryY=0.5;entryDx=0;entryDy=0;" edge="1" parent="1" source="RTQ0NxdWoZ7tqCXhcupJ-3" target="RTQ0NxdWoZ7tqCXhcupJ-9">
          <mxGeometry relative="1" as="geometry" />
        </mxCell>
        <mxCell id="p1zoaM96KkhPc-a-cA9U-10" style="edgeStyle=orthogonalEdgeStyle;rounded=0;orthogonalLoop=1;jettySize=auto;html=1;exitX=0.25;exitY=1;exitDx=0;exitDy=0;entryX=0;entryY=0.5;entryDx=0;entryDy=0;" edge="1" parent="1" source="RTQ0NxdWoZ7tqCXhcupJ-3" target="RTQ0NxdWoZ7tqCXhcupJ-14">
          <mxGeometry relative="1" as="geometry" />
        </mxCell>
        <mxCell id="RTQ0NxdWoZ7tqCXhcupJ-3" value="Evento" style="rounded=0;whiteSpace=wrap;html=1;" parent="1" vertex="1">
          <mxGeometry x="200" y="210" width="120" height="60" as="geometry" />
        </mxCell>
        <mxCell id="RTQ0NxdWoZ7tqCXhcupJ-4" value="Partecipa" style="rhombus;whiteSpace=wrap;html=1;" parent="1" vertex="1">
          <mxGeometry x="520" y="200" width="80" height="80" as="geometry" />
        </mxCell>
        <mxCell id="RTQ0NxdWoZ7tqCXhcupJ-5" value="Utilizza" style="rhombus;whiteSpace=wrap;html=1;" parent="1" vertex="1">
          <mxGeometry x="30" y="300" width="80" height="80" as="geometry" />
        </mxCell>
        <mxCell id="RTQ0NxdWoZ7tqCXhcupJ-6" value="" style="ellipse;whiteSpace=wrap;html=1;aspect=fixed;" parent="1" vertex="1">
          <mxGeometry x="290" y="300" width="30" height="30" as="geometry" />
        </mxCell>
        <mxCell id="RTQ0NxdWoZ7tqCXhcupJ-7" value="" style="ellipse;whiteSpace=wrap;html=1;aspect=fixed;" parent="1" vertex="1">
          <mxGeometry x="290" y="340" width="30" height="30" as="geometry" />
        </mxCell>
        <mxCell id="RTQ0NxdWoZ7tqCXhcupJ-8" value="" style="ellipse;whiteSpace=wrap;html=1;aspect=fixed;" parent="1" vertex="1">
          <mxGeometry x="290" y="380" width="30" height="30" as="geometry" />
        </mxCell>
        <mxCell id="RTQ0NxdWoZ7tqCXhcupJ-9" value="" style="ellipse;whiteSpace=wrap;html=1;aspect=fixed;" parent="1" vertex="1">
          <mxGeometry x="290" y="420" width="30" height="30" as="geometry" />
        </mxCell>
        <mxCell id="RTQ0NxdWoZ7tqCXhcupJ-10" value="NomeEvento" style="text;html=1;align=left;verticalAlign=middle;whiteSpace=wrap;rounded=0;" parent="1" vertex="1">
          <mxGeometry x="320" y="300" width="60" height="30" as="geometry" />
        </mxCell>
        <mxCell id="RTQ0NxdWoZ7tqCXhcupJ-11" value="DescrizioneEvento&lt;span style=&quot;white-space: pre;&quot;&gt;&#x9;&lt;/span&gt;" style="text;html=1;align=left;verticalAlign=middle;whiteSpace=wrap;rounded=0;" parent="1" vertex="1">
          <mxGeometry x="320" y="340" width="60" height="30" as="geometry" />
        </mxCell>
        <mxCell id="RTQ0NxdWoZ7tqCXhcupJ-12" value="DataEvento" style="text;html=1;align=left;verticalAlign=middle;whiteSpace=wrap;rounded=0;" parent="1" vertex="1">
          <mxGeometry x="320" y="380" width="60" height="30" as="geometry" />
        </mxCell>
        <mxCell id="RTQ0NxdWoZ7tqCXhcupJ-13" value="LuogoEvento" style="text;html=1;align=left;verticalAlign=middle;whiteSpace=wrap;rounded=0;" parent="1" vertex="1">
          <mxGeometry x="320" y="420" width="60" height="30" as="geometry" />
        </mxCell>
        <mxCell id="RTQ0NxdWoZ7tqCXhcupJ-14" value="" style="ellipse;whiteSpace=wrap;html=1;aspect=fixed;" parent="1" vertex="1">
          <mxGeometry x="290" y="460" width="30" height="30" as="geometry" />
        </mxCell>
        <mxCell id="RTQ0NxdWoZ7tqCXhcupJ-15" value="CapacitaMassima" style="text;html=1;align=left;verticalAlign=middle;whiteSpace=wrap;rounded=0;" parent="1" vertex="1">
          <mxGeometry x="320" y="460" width="60" height="30" as="geometry" />
        </mxCell>
        <mxCell id="RTQ0NxdWoZ7tqCXhcupJ-21" value="" style="ellipse;whiteSpace=wrap;html=1;aspect=fixed;" parent="1" vertex="1">
          <mxGeometry x="590" y="490" width="30" height="30" as="geometry" />
        </mxCell>
        <mxCell id="RTQ0NxdWoZ7tqCXhcupJ-22" value="" style="ellipse;whiteSpace=wrap;html=1;aspect=fixed;" parent="1" vertex="1">
          <mxGeometry x="590" y="530" width="30" height="30" as="geometry" />
        </mxCell>
        <mxCell id="RTQ0NxdWoZ7tqCXhcupJ-23" value="" style="ellipse;whiteSpace=wrap;html=1;aspect=fixed;fillColor=#FFFFFF;" parent="1" vertex="1">
          <mxGeometry x="590" y="570" width="30" height="30" as="geometry" />
        </mxCell>
        <mxCell id="RTQ0NxdWoZ7tqCXhcupJ-27" value="Nominativo" style="text;html=1;align=left;verticalAlign=middle;whiteSpace=wrap;rounded=0;" parent="1" vertex="1">
          <mxGeometry x="620" y="490" width="60" height="30" as="geometry" />
        </mxCell>
        <mxCell id="RTQ0NxdWoZ7tqCXhcupJ-28" value="Email" style="text;html=1;align=left;verticalAlign=middle;whiteSpace=wrap;rounded=0;" parent="1" vertex="1">
          <mxGeometry x="620" y="570" width="70" height="30" as="geometry" />
        </mxCell>
        <mxCell id="RTQ0NxdWoZ7tqCXhcupJ-29" value="Telefono" style="text;html=1;align=left;verticalAlign=middle;whiteSpace=wrap;rounded=0;" parent="1" vertex="1">
          <mxGeometry x="620" y="530" width="60" height="30" as="geometry" />
        </mxCell>
        <mxCell id="RTQ0NxdWoZ7tqCXhcupJ-30" value="" style="ellipse;whiteSpace=wrap;html=1;aspect=fixed;" parent="1" vertex="1">
          <mxGeometry x="150" y="560" width="30" height="30" as="geometry" />
        </mxCell>
        <mxCell id="RTQ0NxdWoZ7tqCXhcupJ-31" value="Tipo" style="text;html=1;align=left;verticalAlign=middle;whiteSpace=wrap;rounded=0;" parent="1" vertex="1">
          <mxGeometry x="180" y="680" width="60" height="30" as="geometry" />
        </mxCell>
        <mxCell id="RTQ0NxdWoZ7tqCXhcupJ-32" value="" style="ellipse;whiteSpace=wrap;html=1;aspect=fixed;" parent="1" vertex="1">
          <mxGeometry x="150" y="600" width="30" height="30" as="geometry" />
        </mxCell>
        <mxCell id="RTQ0NxdWoZ7tqCXhcupJ-33" value="Costo" style="text;html=1;align=left;verticalAlign=middle;whiteSpace=wrap;rounded=0;" parent="1" vertex="1">
          <mxGeometry x="180" y="600" width="60" height="30" as="geometry" />
        </mxCell>
        <mxCell id="RTQ0NxdWoZ7tqCXhcupJ-34" value="" style="ellipse;whiteSpace=wrap;html=1;aspect=fixed;" parent="1" vertex="1">
          <mxGeometry x="150" y="640" width="30" height="30" as="geometry" />
        </mxCell>
        <mxCell id="RTQ0NxdWoZ7tqCXhcupJ-35" value="Quantità" style="text;html=1;align=left;verticalAlign=middle;whiteSpace=wrap;rounded=0;" parent="1" vertex="1">
          <mxGeometry x="180" y="560" width="60" height="30" as="geometry" />
        </mxCell>
        <mxCell id="RTQ0NxdWoZ7tqCXhcupJ-36" value="" style="ellipse;whiteSpace=wrap;html=1;aspect=fixed;" parent="1" vertex="1">
          <mxGeometry x="150" y="680" width="30" height="30" as="geometry" />
        </mxCell>
        <mxCell id="RTQ0NxdWoZ7tqCXhcupJ-37" value="Fornitore" style="text;html=1;align=left;verticalAlign=middle;whiteSpace=wrap;rounded=0;" parent="1" vertex="1">
          <mxGeometry x="180" y="640" width="60" height="30" as="geometry" />
        </mxCell>
        <mxCell id="RTQ0NxdWoZ7tqCXhcupJ-43" value="" style="endArrow=none;html=1;rounded=0;" parent="1" edge="1">
          <mxGeometry width="50" height="50" relative="1" as="geometry">
            <mxPoint x="350" y="260" as="sourcePoint" />
            <mxPoint x="350" y="220" as="targetPoint" />
          </mxGeometry>
        </mxCell>
        <mxCell id="RTQ0NxdWoZ7tqCXhcupJ-48" value="" style="endArrow=none;html=1;rounded=0;" parent="1" edge="1">
          <mxGeometry width="50" height="50" relative="1" as="geometry">
            <mxPoint x="570" y="600" as="sourcePoint" />
            <mxPoint x="570" y="570" as="targetPoint" />
          </mxGeometry>
        </mxCell>
        <mxCell id="p1zoaM96KkhPc-a-cA9U-2" value="" style="endArrow=none;html=1;rounded=0;" edge="1" parent="1">
          <mxGeometry width="50" height="50" relative="1" as="geometry">
            <mxPoint x="545" y="390" as="sourcePoint" />
            <mxPoint x="575" y="390" as="targetPoint" />
          </mxGeometry>
        </mxCell>
        <mxCell id="p1zoaM96KkhPc-a-cA9U-4" value="" style="endArrow=none;html=1;rounded=0;" edge="1" parent="1">
          <mxGeometry width="50" height="50" relative="1" as="geometry">
            <mxPoint x="164.29" y="260" as="sourcePoint" />
            <mxPoint x="164.29" y="220" as="targetPoint" />
          </mxGeometry>
        </mxCell>
        <mxCell id="p1zoaM96KkhPc-a-cA9U-5" value="" style="endArrow=none;html=1;rounded=0;" edge="1" parent="1">
          <mxGeometry width="50" height="50" relative="1" as="geometry">
            <mxPoint x="270" y="370" as="sourcePoint" />
            <mxPoint x="270" y="340" as="targetPoint" />
          </mxGeometry>
        </mxCell>
      </root>
    </mxGraphModel>
  </diagram>
</mxfile>
